<svg id="Layer_1" data-name="Layer 1" xmlns="http://www.w3.org/2000/svg" viewBox="0 0 204 204"><title>clock</title><rect x="100.653" y="0.209" width="2.652" height="7.291"/><rect x="101.769" y="0.209" width="0.422" height="7.291"/><rect x="91.509" y="0.745" width="0.42" height="7.291" transform="translate(0.044 9.618) rotate(-6.004)"/><rect x="81.366" y="2.357" width="0.421" height="7.29" transform="translate(0.518 16.966) rotate(-11.911)"/><rect x="71.442" y="5.018" width="0.421" height="7.291" transform="translate(0.824 22.535) rotate(-17.975)"/><rect x="61.851" y="8.705" width="0.421" height="7.29" transform="translate(0.329 26.254) rotate(-23.948)"/><rect x="52.702" y="13.37" width="0.421" height="7.29" transform="translate(-1.441 28.634) rotate(-29.893)"/><rect x="44.083" y="18.968" width="0.42" height="7.291" transform="translate(-4.83 30.368) rotate(-36.017)"/><rect x="36.104" y="25.433" width="0.42" height="7.29" transform="translate(-10.13 31.759) rotate(-41.989)"/><rect x="28.842" y="32.701" width="0.42" height="7.289" transform="translate(-17.398 33.625) rotate(-48.012)"/><rect x="22.375" y="40.685" width="0.42" height="7.291" transform="translate(-26.577 36.688) rotate(-54.167)"/><rect x="16.786" y="49.299" width="0.421" height="7.29" transform="translate(-37.338 41.123) rotate(-59.928)"/><rect x="12.122" y="58.453" width="0.42" height="7.291" transform="translate(-49.443 48.238) rotate(-66.121)"/><rect x="8.445" y="68.045" width="0.42" height="7.29" transform="translate(-62.228 57.912) rotate(-72.116)"/><rect x="5.787" y="77.975" width="0.42" height="7.29" transform="translate(-75.073 70.418) rotate(-77.931)"/><rect x="4.186" y="88.121" width="0.42" height="7.29" transform="translate(-87.339 86.752) rotate(-84.129)"/><rect x="0.212" y="101.812" width="7.289" height="0.42"/><rect x="0.754" y="112.066" width="7.29" height="0.42" transform="translate(-11.977 1.114) rotate(-6.136)"/><polygon points="9.526 121.464 9.614 121.874 2.485 123.39 2.394 122.979 9.526 121.464"/><polygon points="12.067 131.024 12.198 131.422 5.267 133.675 5.132 133.276 12.067 131.024"/><rect x="8.709" y="141.727" width="7.291" height="0.42" transform="translate(-57.051 17.512) rotate(-24.179)"/><polygon points="20.067 149.087 20.278 149.451 13.966 153.096 13.751 152.733 20.067 149.087"/><rect x="18.963" y="159.49" width="7.291" height="0.42" transform="translate(-89.968 44.194) rotate(-36.206)"/><rect x="25.445" y="167.48" width="7.289" height="0.42" transform="translate(-104.869 62.708) rotate(-42.074)"/><rect x="32.707" y="174.749" width="7.289" height="0.42" transform="translate(-118.163 85.196) rotate(-48.109)"/><rect x="40.686" y="181.212" width="7.29" height="0.42" transform="translate(-128.61 110.919) rotate(-54.089)"/><rect x="49.295" y="186.801" width="7.289" height="0.419" transform="translate(-135.562 139.653) rotate(-60.092)"/><rect x="58.457" y="191.461" width="7.289" height="0.419" transform="translate(-138.281 170.67) rotate(-66.065)"/><rect x="68.049" y="195.15" width="7.289" height="0.419" transform="translate(-136.249 203.436) rotate(-72.072)"/><rect x="77.97" y="197.791" width="7.289" height="0.419" transform="translate(-129.003 236.798) rotate(-78.036)"/><rect x="88.107" y="199.399" width="7.289" height="0.418" transform="translate(-116.387 269.894) rotate(-83.973)"/><rect x="101.812" y="196.5" width="0.42" height="7.289"/><rect x="112.079" y="195.948" width="0.418" height="7.289" transform="translate(-20.336 12.893) rotate(-6.027)"/><rect x="122.216" y="194.346" width="0.419" height="7.289" transform="matrix(0.978, -0.207, 0.207, 0.978, -38.383, 29.679)"/><rect x="132.141" y="191.677" width="0.419" height="7.29" transform="translate(-54.013 50.63) rotate(-18.053)"/><rect x="141.727" y="188.021" width="0.419" height="7.29" transform="translate(-65.811 74.522) rotate(-24.061)"/><rect x="150.888" y="183.332" width="0.42" height="7.291" transform="translate(-73.455 101.145) rotate(-30.139)"/><rect x="159.491" y="177.755" width="0.419" height="7.291" transform="translate(-76.287 129.246) rotate(-36.178)"/><rect x="167.476" y="171.28" width="0.419" height="7.291" transform="translate(-74.028 157.839) rotate(-42.167)"/><rect x="174.741" y="164.007" width="0.419" height="7.292" transform="translate(-66.637 186.372) rotate(-48.211)"/><rect x="181.213" y="156.019" width="0.42" height="7.291" transform="translate(-54.303 212.958) rotate(-54.089)"/><rect x="186.808" y="147.414" width="0.419" height="7.291" transform="translate(-37.173 237.851) rotate(-60.092)"/><rect x="191.462" y="138.253" width="0.419" height="7.292" transform="translate(-15.786 259.519) rotate(-66.065)"/><rect x="195.138" y="128.659" width="0.418" height="7.292" transform="translate(9.98 278.264) rotate(-72.326)"/><rect x="197.796" y="118.725" width="0.419" height="7.292" transform="translate(37.624 291.068) rotate(-78.164)"/><rect x="199.405" y="108.585" width="0.419" height="7.292" transform="matrix(0.103, -0.995, 0.995, 0.103, 67.514, 299.289)"/><rect x="196.499" y="101.769" width="7.291" height="0.419"/><rect x="195.97" y="91.51" width="7.292" height="0.418" transform="translate(-8.696 21.97) rotate(-6.166)"/><rect x="194.353" y="81.366" width="7.292" height="0.418" transform="translate(-12.735 43.506) rotate(-12.152)"/><rect x="191.687" y="71.437" width="7.292" height="0.418" transform="translate(-12.613 64.828) rotate(-18.265)"/><rect x="187.996" y="61.852" width="7.293" height="0.418" transform="translate(-8.565 84.315) rotate(-24.286)"/><rect x="183.347" y="52.699" width="7.292" height="0.418" transform="translate(-1.168 101.498) rotate(-30.278)"/><rect x="177.736" y="44.08" width="7.292" height="0.417" transform="translate(8.788 115.507) rotate(-36.144)"/><rect x="171.275" y="36.103" width="7.292" height="0.418" transform="translate(21.177 127.3) rotate(-42.345)"/><rect x="164.005" y="28.841" width="7.293" height="0.418" transform="translate(34.636 135.154) rotate(-48.409)"/><rect x="156.03" y="22.375" width="7.293" height="0.416" transform="translate(48.08 139) rotate(-54.261)"/><rect x="147.411" y="16.788" width="7.292" height="0.416" transform="translate(61.462 139.796) rotate(-60.305)"/><polygon points="140.607 15.746 140.226 15.578 143.189 8.915 143.576 9.086 140.607 15.746"/><rect x="128.661" y="8.443" width="7.292" height="0.418" transform="translate(83.894 132.087) rotate(-72.326)"/><rect x="118.74" y="5.784" width="7.293" height="0.417" transform="translate(91.856 124.66) rotate(-78.375)"/><rect x="108.594" y="4.179" width="7.293" height="0.418" transform="translate(96.863 115.657) rotate(-84.37)"/><rect x="51.581" y="13.371" width="2.651" height="7.292" transform="translate(-1.416 28.753) rotate(-30.021)"/><rect x="15.666" y="49.301" width="2.65" height="7.291" transform="translate(-37.362 41.211) rotate(-60.025)"/><rect x="0.21" y="100.697" width="7.291" height="2.651"/><rect x="13.367" y="149.764" width="7.291" height="2.651" transform="translate(-73.294 28.77) rotate(-30.013)"/><rect x="49.291" y="185.679" width="7.292" height="2.652" transform="translate(-135.499 139.413) rotate(-60.02)"/><rect x="100.697" y="196.5" width="2.65" height="7.291"/><rect x="149.77" y="183.329" width="2.652" height="7.29" transform="translate(-73.214 100.52) rotate(-29.98)"/><rect x="185.694" y="147.409" width="2.651" height="7.291" transform="translate(-37.339 237.408) rotate(-59.979)"/><rect x="196.5" y="100.653" width="7.289" height="2.65"/><rect x="183.339" y="51.574" width="7.29" height="2.65" transform="translate(-1.419 100.497) rotate(-29.975)"/><rect x="147.405" y="15.661" width="7.291" height="2.651" transform="translate(60.768 139.273) rotate(-59.979)"/></svg>